<svg xmlns="http://www.w3.org/2000/svg" width="750" height="734.107" viewBox="0 0 750 734.107">
  <g id="MEAN_Developer" data-name="MEAN Developer" transform="translate(-886.026 279.445)">
    <g id="Group_4060" data-name="Group 4060" transform="translate(886.026 -279.445)">
      <path id="Path_5004" data-name="Path 5004" d="M1613.842,5.325c-83.263-142.583-309.087-91.8-355.215-161.159-23.618-35.514-50.042-76.678-88.365-98.085-36.537-20.407-78.9-27.689-115.83-24.985-131.882,9.653-187.8,127.651-162.457,257.23,33.807,172.85,187.034,349.414,369.067,350.649,95.2.647,186.1-33.385,257.4-81.5q.8-.538,1.6-1.081C1591.26,197.916,1677.41,114.188,1613.842,5.325Z" transform="translate(-886.026 279.445)" fill="#ce796f" style="mix-blend-mode: normal;isolation: isolate"/>
      <path id="Path_5005" data-name="Path 5005" d="M1613.842,5.325c-83.263-142.583-309.087-91.8-355.215-161.159-23.618-35.514-50.042-76.678-88.365-98.085-36.537-20.407-78.9-27.689-115.83-24.985-131.882,9.653-187.8,127.651-162.457,257.23,33.807,172.85,187.034,349.414,369.067,350.649,95.2.647,186.1-33.385,257.4-81.5q.8-.538,1.6-1.081C1591.26,197.916,1677.41,114.188,1613.842,5.325Z" transform="translate(-886.026 279.445)" fill="#ce796f" opacity="0.7"/>
    </g>
    <g id="Group_4061" data-name="Group 4061" transform="translate(920.829 -241.808)">
      <path id="Path_5006" data-name="Path 5006" d="M953.12-106.657h-9.256A37.462,37.462,0,0,0,906.4-69.2V136.366a37.462,37.462,0,0,0,37.463,37.461h127.019a37.461,37.461,0,0,0,37.461-37.461h0" transform="translate(-906.401 364.165)" fill="none" stroke="#1a2e35" stroke-linecap="round" stroke-linejoin="round" stroke-width="1.103" stroke-dasharray="4.412"/>
      <path id="Path_5007" data-name="Path 5007" d="M1018.527-193.862v-40.606a22.944,22.944,0,0,1,22.944-22.944h165.18a22.944,22.944,0,0,1,22.944,22.944h0" transform="translate(-827.001 257.411)" fill="none" stroke="#1a2e35" stroke-linecap="round" stroke-linejoin="round" stroke-width="1.103" stroke-dasharray="4.412"/>
    </g>
    <g id="Group_4062" data-name="Group 4062" transform="translate(933.881 363.23)">
      <ellipse id="Ellipse_281" data-name="Ellipse 281" cx="327.145" cy="45.716" rx="327.145" ry="45.716" fill="#5fcaf8" style="mix-blend-mode: normal;isolation: isolate"/>
      <ellipse id="Ellipse_282" data-name="Ellipse 282" cx="327.145" cy="45.716" rx="327.145" ry="45.716" fill="#ce796f" opacity="0.5"/>
    </g>
    <g id="Group_4063" data-name="Group 4063" transform="translate(952.638 -161.708)">
      <path id="Path_5008" data-name="Path 5008" d="M1541.8-172.587V134.98a37.916,37.916,0,0,1-37.91,37.91H962.935a37.916,37.916,0,0,1-37.912-37.91V-172.587c0-.905.037-1.79.114-2.677a37.9,37.9,0,0,1,37.8-35.254h540.951a37.9,37.9,0,0,1,37.8,35.254C1541.759-174.377,1541.8-173.492,1541.8-172.587Z" transform="translate(-925.023 210.518)" fill="#fff" stroke="#1a2e35" stroke-linecap="round" stroke-linejoin="round" stroke-width="1.103"/>
      <path id="Rectangle_9560" data-name="Rectangle 9560" d="M0,0H581.81a0,0,0,0,1,0,0V298.845a20.8,20.8,0,0,1-20.8,20.8H20.8A20.8,20.8,0,0,1,0,298.845V0A0,0,0,0,1,0,0Z" transform="translate(18.448 49.464)" fill="#1a2e35"/>
      <path id="Path_5009" data-name="Path 5009" d="M1517.643-181.561V102.565a35.336,35.336,0,0,1-35.135,35.519H970.958a35.336,35.336,0,0,1-35.135-35.519V-181.561Z" transform="translate(-917.375 231.023)" fill="#fff" opacity="0.2"/>
      <path id="Path_5010" data-name="Path 5010" d="M1541.636-175.264H925.09a37.9,37.9,0,0,1,37.8-35.254h540.951A37.9,37.9,0,0,1,1541.636-175.264Z" transform="translate(-924.975 210.518)" fill="#ce796f" style="mix-blend-mode: normal;isolation: isolate"/>
      <path id="Path_5011" data-name="Path 5011" d="M975.013-197.414A6.716,6.716,0,0,1,968.3-190.7a6.715,6.715,0,0,1-6.715-6.715,6.715,6.715,0,0,1,6.715-6.715A6.716,6.716,0,0,1,975.013-197.414Z" transform="translate(-899.134 215.042)" fill="#1a2e35"/>
      <path id="Path_5012" data-name="Path 5012" d="M991.635-197.414a6.715,6.715,0,0,1-6.715,6.715,6.715,6.715,0,0,1-6.716-6.715,6.715,6.715,0,0,1,6.716-6.715A6.715,6.715,0,0,1,991.635-197.414Z" transform="translate(-887.364 215.042)" fill="#1a2e35"/>
      <circle id="Ellipse_283" data-name="Ellipse 283" cx="6.715" cy="6.715" r="6.715" transform="translate(119.234 10.913)" fill="#1a2e35"/>
      <path id="Path_5013" data-name="Path 5013" d="M1517.629-181.555V102.554a35.539,35.539,0,0,1-35.536,35.536H971.347a35.527,35.527,0,0,1-34.841-28.64l-.019-.019v-.075a35.379,35.379,0,0,1-.659-6.8V-181.555Z" transform="translate(-917.372 231.028)" fill="none" stroke="#1a2e35" stroke-width="1.103"/>
      <path id="Path_5014" data-name="Path 5014" d="M1304.045-148.563a36.112,36.112,0,0,0-7.9-3.261l-3.184-14.263H1279.4l-3.165,14.263a35.052,35.052,0,0,0-7.916,3.261l-12.247-7.839-9.59,9.591,7.706,12.247a34.832,34.832,0,0,0-3.259,7.914l-14.265,3.165v13.566l14.265,3.186a34.592,34.592,0,0,0,3.259,7.97l-7.839,12.322,9.591,9.591,12.324-7.839a35.059,35.059,0,0,0,7.914,3.278l3.165,14.246h13.566l3.184-14.246a36.173,36.173,0,0,0,7.895-3.278l.622.4v-64.631ZM1286.22-99.1a17.515,17.515,0,0,1-17.524-17.524,17.527,17.527,0,0,1,17.524-17.524,17.527,17.527,0,0,1,17.524,17.524A17.515,17.515,0,0,1,1286.22-99.1Z" transform="translate(-704.339 241.981)" fill="#1a2e35"/>
      <path id="Path_5015" data-name="Path 5015" d="M1219.526-123.865v-28.6l-30.073-6.67a77.618,77.618,0,0,0-6.877-16.7l3.637-5.727H1044.271l3.5,5.577a73.958,73.958,0,0,0-6.858,16.677l-30.074,6.689v28.6l30.074,6.708a74.99,74.99,0,0,0,6.858,16.808l-16.524,25.982L1051.489-54.3l25.965-16.526a76.543,76.543,0,0,0,16.694,6.916l6.67,30.034h28.6l6.727-30.034a77.038,77.038,0,0,0,16.637-6.916L1178.77-54.3l20.218-20.219L1182.576-100.5a78.283,78.283,0,0,0,6.877-16.658Zm-104.2,22.648a36.951,36.951,0,0,1-36.95-36.95,36.951,36.951,0,0,1,36.95-36.949,36.95,36.95,0,0,1,36.95,36.949A36.95,36.95,0,0,1,1115.326-101.217Z" transform="translate(-864.249 231.023)" fill="#1a2e35"/>
      <path id="Path_5016" data-name="Path 5016" d="M1082.933,8.3l1.206-22.686-23.516-6.633a63.58,63.58,0,0,0-4.824-13.491l14.208-19.954-15.226-16.9-21.292,12.041a63.005,63.005,0,0,0-12.963-6.2l-4.071-24.119L993.77-90.846l-6.558,23.591a59.194,59.194,0,0,0-13.491,4.786L953.786-76.677,936.865-61.452l12.059,21.311A58.889,58.889,0,0,0,942.707-27.2l-6.879,1.131V4.666l4.995,1.414a59.3,59.3,0,0,0,4.824,13.528l-9.818,13.737.659,11.776V45.2l.019.019,10.119,11.231,21.329-12.041a59.066,59.066,0,0,0,13,6.274l3.881,23.157v.019l.188.962,22.687,1.206.6-2.168v-.019l5.955-21.4a60.817,60.817,0,0,0,13.566-4.786l19.9,14.188,16.921-15.206L1052.634,25.3a58.871,58.871,0,0,0,6.142-12.925Zm-60.26-35.442a29.38,29.38,0,0,0-41.49-2.186A29.384,29.384,0,0,0,979,12.167a29.383,29.383,0,0,0,41.492,2.166A29.358,29.358,0,0,0,1022.673-27.139Z" transform="translate(-917.372 295.262)" fill="#1a2e35"/>
      <path id="Path_5017" data-name="Path 5017" d="M1172.7-22.053a46.2,46.2,0,0,0,1.377-10.744l16.311-8.577-4.508-16.547-18.41.861a45.784,45.784,0,0,0-6.614-8.548l5.456-17.611-14.868-8.517L1139-78.163a48.242,48.242,0,0,0-10.708-1.365l-8.611-16.323-16.525,4.5.873,18.434a46.81,46.81,0,0,0-8.564,6.609l-17.62-5.439-8.527,14.844,13.645,12.4a44.68,44.68,0,0,0-1.348,10.717l-16.34,8.6,4.508,16.548,18.433-.873A43.914,43.914,0,0,0,1094.81-.95l-5.483,17.522,14.868,8.517,12.374-13.455a45.127,45.127,0,0,0,10.732,1.353l8.587,16.335,16.524-4.5-.726-15.747-.123-2.7a45.431,45.431,0,0,0,8.648-6.617l17.606,5.473,7.275-12.714,1.242-2.152ZM1133.626-12a22.135,22.135,0,0,1-27.173-15.539,22.134,22.134,0,0,1,15.539-27.173,22.132,22.132,0,0,1,27.173,15.539A22.133,22.133,0,0,1,1133.626-12Z" transform="translate(-825.703 291.718)" fill="#1a2e35"/>
      <path id="Path_5018" data-name="Path 5018" d="M1307.565,9.893l3.768-22.706-22.988-9.251a60.881,60.881,0,0,0-3.3-14.169l16.543-18.427-13.4-18.73-22.817,9.685a60.634,60.634,0,0,0-12.324-7.651l-1.337-24.759-22.723-3.749-9.309,22.894a63.541,63.541,0,0,0-14.113,3.315L1187.087-90.2l-18.711,13.4,9.7,22.8a61.985,61.985,0,0,0-6.916,10.739c-.263.528-.528,1.056-.772,1.583l-24.74,1.375-3.768,22.686,3.73,1.508,19.257,7.763a59.877,59.877,0,0,0,3.3,14.113l-16.543,18.485,13.4,18.709,22.819-9.723a59.137,59.137,0,0,0,12.3,7.707l1.281,24.647,22.706,3.749,9.289-22.725a59.607,59.607,0,0,0,14.15-3.315l18.448,16.562,18.729-13.416-9.7-22.819a59.468,59.468,0,0,0,7.781-12.379Zm-63.707-1.018A29.739,29.739,0,0,1,1202.368,2a29.715,29.715,0,0,1,6.858-41.472,29.735,29.735,0,0,1,41.491,6.858A29.736,29.736,0,0,1,1243.859,8.875Z" transform="translate(-771.457 288.875)" fill="#1a2e35"/>
    </g>
    <g id="Group_4071" data-name="Group 4071" transform="translate(979.848 -207.257)">
      <g id="Group_4068" data-name="Group 4068" transform="translate(0 176.139)">
        <rect id="Rectangle_9561" data-name="Rectangle 9561" width="223.418" height="292.115" rx="13.11" fill="#5fcaf8" style="mix-blend-mode: normal;isolation: isolate"/>
        <rect id="Rectangle_9562" data-name="Rectangle 9562" width="223.418" height="292.115" rx="13.11" fill="#cd796f" opacity="0.58"/>
        <g id="Group_4067" data-name="Group 4067" transform="translate(20.801 22.071)">
          <path id="Path_5019" data-name="Path 5019" d="M1176.546-98.76V148.568a22.4,22.4,0,0,1-22.4,22.4H975.515a22.392,22.392,0,0,1-22.385-22.4V-98.76a22.388,22.388,0,0,1,22.385-22.385h178.627A22.392,22.392,0,0,1,1176.546-98.76Z" transform="translate(-953.13 121.145)" fill="#fff" stroke="#1a2e35" stroke-linecap="round" stroke-linejoin="round" stroke-width="1.103"/>
          <path id="Path_5020" data-name="Path 5020" d="M1176.546-98.76v13.247H953.13V-98.76a22.388,22.388,0,0,1,22.385-22.385h178.627A22.392,22.392,0,0,1,1176.546-98.76Z" transform="translate(-953.13 121.145)" fill="#ce796f" style="mix-blend-mode: normal;isolation: isolate"/>
          <rect id="Rectangle_9563" data-name="Rectangle 9563" width="54.965" height="9.219" transform="translate(21.01 50.975)" fill="#ce796f" style="mix-blend-mode: normal;isolation: isolate"/>
          <rect id="Rectangle_9564" data-name="Rectangle 9564" width="54.965" height="9.219" transform="translate(21.01 133.629)" fill="#ce796f" style="mix-blend-mode: normal;isolation: isolate"/>
          <rect id="Rectangle_9565" data-name="Rectangle 9565" width="54.965" height="9.219" transform="translate(21.01 208.582)" fill="#ce796f" style="mix-blend-mode: normal;isolation: isolate"/>
          <g id="Group_4064" data-name="Group 4064" transform="translate(21.01 73.8)">
            <rect id="Rectangle_9566" data-name="Rectangle 9566" width="156.11" height="6.762" fill="#1a2e35"/>
            <rect id="Rectangle_9567" data-name="Rectangle 9567" width="127.961" height="6.589" transform="translate(0 12.943)" fill="#1a2e35"/>
            <rect id="Rectangle_9568" data-name="Rectangle 9568" width="144.717" height="6.589" transform="translate(0 25.665)" fill="#1a2e35"/>
            <rect id="Rectangle_9569" data-name="Rectangle 9569" width="144.717" height="6.589" transform="translate(0 38.377)" fill="#1a2e35"/>
          </g>
          <g id="Group_4065" data-name="Group 4065" transform="translate(21.01 148.753)">
            <rect id="Rectangle_9570" data-name="Rectangle 9570" width="156.11" height="6.762" fill="#1a2e35"/>
            <rect id="Rectangle_9571" data-name="Rectangle 9571" width="127.961" height="6.589" transform="translate(0 12.943)" fill="#1a2e35"/>
            <rect id="Rectangle_9572" data-name="Rectangle 9572" width="144.717" height="6.589" transform="translate(0 25.665)" fill="#1a2e35"/>
          </g>
          <g id="Group_4066" data-name="Group 4066" transform="translate(21.01 231.061)">
            <rect id="Rectangle_9573" data-name="Rectangle 9573" width="156.11" height="6.762" transform="translate(0 0)" fill="#1a2e35"/>
            <rect id="Rectangle_9574" data-name="Rectangle 9574" width="127.961" height="6.589" transform="translate(0 12.943)" fill="#1a2e35"/>
            <rect id="Rectangle_9575" data-name="Rectangle 9575" width="144.717" height="6.589" transform="translate(0 25.665)" fill="#1a2e35"/>
          </g>
        </g>
      </g>
      <g id="Group_4070" data-name="Group 4070" transform="translate(212.365)">
        <path id="Path_5021" data-name="Path 5021" d="M1348.914-210.465v99.96a26.69,26.69,0,0,1-26.7,26.7H1091.978a26.7,26.7,0,0,1-26.7-26.7v-99.96a26.718,26.718,0,0,1,26.7-26.719h230.236A26.7,26.7,0,0,1,1348.914-210.465Z" transform="translate(-1065.278 237.184)" fill="#fff" stroke="#1c1c1b" stroke-width="1.103"/>
        <path id="Path_5022" data-name="Path 5022" d="M1348.914-210.465v2.28H1065.278v-2.28a26.718,26.718,0,0,1,26.7-26.719h230.236A26.7,26.7,0,0,1,1348.914-210.465Z" transform="translate(-1065.278 237.184)" fill="#ce796f" style="mix-blend-mode: normal;isolation: isolate"/>
        <path id="Path_5023" data-name="Path 5023" d="M1092.566-223.006a4.09,4.09,0,0,1-5.784,0,4.09,4.09,0,0,1,0-5.784,4.09,4.09,0,0,1,5.784,0A4.089,4.089,0,0,1,1092.566-223.006Z" transform="translate(-1050.898 242.28)" fill="#1a2e35"/>
        <path id="Path_5024" data-name="Path 5024" d="M1103.686-223.006a4.09,4.09,0,0,1-5.784,0,4.089,4.089,0,0,1,0-5.784,4.09,4.09,0,0,1,5.784,0A4.09,4.09,0,0,1,1103.686-223.006Z" transform="translate(-1043.023 242.28)" fill="#1a2e35"/>
        <path id="Path_5025" data-name="Path 5025" d="M1114.806-223.006a4.09,4.09,0,0,1-5.784,0,4.09,4.09,0,0,1,0-5.784,4.09,4.09,0,0,1,5.784,0A4.089,4.089,0,0,1,1114.806-223.006Z" transform="translate(-1035.149 242.28)" fill="#1a2e35"/>
        <rect id="Rectangle_9576" data-name="Rectangle 9576" width="92.715" height="80.142" transform="translate(18.086 47.38)" fill="none" stroke="#1a2e35" stroke-linecap="round" stroke-linejoin="round" stroke-width="1.103" stroke-dasharray="4.412"/>
        <g id="Group_4069" data-name="Group 4069" transform="translate(125.105 47.38)">
          <rect id="Rectangle_9577" data-name="Rectangle 9577" width="106.702" height="5.628" fill="#1a2e35"/>
          <rect id="Rectangle_9578" data-name="Rectangle 9578" width="81.848" height="5.628" transform="translate(0 11.672)" fill="#1a2e35"/>
          <rect id="Rectangle_9579" data-name="Rectangle 9579" width="121.88" height="5.695" transform="translate(0 23.277)" fill="#1a2e35"/>
          <rect id="Rectangle_9580" data-name="Rectangle 9580" width="103.783" height="5.695" transform="translate(0 34.615)" fill="#1a2e35"/>
        </g>
      </g>
    </g>
    <g id="Group_4073" data-name="Group 4073" transform="translate(1224.064 3.251)">
      <path id="Path_5026" data-name="Path 5026" d="M1200.936,126.613s-49.538,14.207-56.454,16.656c-6.293,2.224-23.345,8.2-36.139,6.351a27.983,27.983,0,0,1-3.656-.791c-12.965-3.864-18.786-7.463-20.482-15.621-1.715-8.179,4.749-14.15,10.966-18s39.947-7.857,39.947-7.857l8.139,2.393h.021Z" transform="translate(-1083.925 270.656)" fill="#ce796f" style="mix-blend-mode: normal;isolation: isolate"/>
      <path id="Path_5027" data-name="Path 5027" d="M1108.343,149.619a27.983,27.983,0,0,1-3.656-.791c-12.965-3.864-18.786-7.463-20.482-15.621-1.715-8.179,4.749-14.15,10.966-18s39.947-7.857,39.947-7.857l8.139,2.393c-7.367,3.392-34.839,5.276-40.831,8.725s-8.894,9.948-5.352,18.728C1098.958,141.875,1104.009,146.4,1108.343,149.619Z" transform="translate(-1083.925 270.656)" fill="#fff"/>
      <path id="Path_5028" data-name="Path 5028" d="M1193.368,127.791s-37.2,9.639-51.953,15.807-42.9,8.869-52.925-3.855-1.156-23.67,8.869-26.1,30.3-6.288,41.368-4.745" transform="translate(-1083.811 271.498)" fill="none" stroke="#1a2e35" stroke-linecap="round" stroke-linejoin="round" stroke-width="1.103"/>
      <path id="Path_5029" data-name="Path 5029" d="M1104.429,147.954s-18.93-10.379-12.644-24.927c4.639-10.736,29.891-8.409,42.394-14.277" transform="translate(-1079.265 271.644)" fill="none" stroke="#1a2e35" stroke-linecap="round" stroke-linejoin="round" stroke-width="1.103"/>
      <path id="Path_5030" data-name="Path 5030" d="M1283.559,152.316c-.509,5.068-2.3,9.929-7.424,12.944-3.411,2.016-8.272,3.222-15.224,3.146-17.374-.225-50.028-12.644-50.028-12.644l-30.581-16.9,15.9-25.174,4.352-6.9,11.25,2.525s9.308,5.276,18.673,9.477,32.089,5.089,40.1,11.571C1278.584,136.827,1284.427,143.875,1283.559,152.316Z" transform="translate(-1015.677 270.258)" fill="#ce796f" style="mix-blend-mode: normal;isolation: isolate"/>
      <path id="Path_5031" data-name="Path 5031" d="M1276.966,152.316c-.509,5.068-2.3,9.929-7.424,12.944.962-3.937,1.753-9.385-.866-15.262-3.392-7.67-14.528-14.434-29.151-15.565-14.6-1.131-25.813-7.97-31.674-11.023-4.578-2.374-14.225-7.555-18.239-9.723l4.352-6.9,11.25,2.525s9.308,5.276,18.673,9.477,32.089,5.089,40.1,11.571C1271.992,136.827,1277.834,143.875,1276.966,152.316Z" transform="translate(-1009.084 270.258)" fill="#fff"/>
      <path id="Path_5032" data-name="Path 5032" d="M1185.583,139.386c21.768,12.471,46.668,21.451,71.578,24.45,5.56.67,12.034.764,15.761-3.418a11.663,11.663,0,0,0,2.569-8.737c-.675-7.851-7.275-14.077-14.514-17.187s-15.235-3.855-22.923-5.579a90.441,90.441,0,0,1-22.042-8.064c-5.528-2.883-10.879-6.387-16.977-7.676s-13.364.275-16.619,5.592" transform="translate(-1014.18 274.474)" fill="none" stroke="#1a2e35" stroke-linecap="round" stroke-linejoin="round" stroke-width="1.103"/>
      <path id="Path_5033" data-name="Path 5033" d="M1264.358,165.72c5.628-2.89,10.25-8.194,11.188-14.451,1.109-7.4-3.105-14.839-9.044-19.391s-13.358-6.687-20.684-8.211-14.818-2.547-21.787-5.27c-10.717-4.185-21.285-12.456-32.405-9.506" transform="translate(-1007.658 271.304)" fill="none" stroke="#1a2e35" stroke-linecap="round" stroke-linejoin="round" stroke-width="1.103"/>
      <path id="Path_5034" data-name="Path 5034" d="M1281.226-9.263l-51.741-19.69-.641-.246s.188-1.375.338-3.372c.321-4.127.49-10.853-1.45-13.134-2.883-3.372-11.06-.547-19.032-4.2s-22.723,2.883-22.723,2.883-10.647-1.959-15.337,5.727c-2.393,6.2-1.565,15.433-1.565,15.433s-.338.132-.979.357c-6.163,2.3-39.7,14.924-46.806,19.992-7.839,5.56-16.506,62.557-19.293,79.29-2.789,16.752-7.745,31.824-5.22,37.591,2.506,5.746,38.553,33.5,59.279,40.662,20.727,7.179,94.269,5.068,94.269,5.068s1.206-.319,3.336-1c12.435-4,56.565-20.445,79.966-59.242C1333.626,96.858,1310.959,22.506,1281.226-9.263ZM1141.433,86.608c-3.807,2.7-1.771,13.153-1.771,13.153l-6.482-5.71,16.261-39.982,6.933,30.693S1145.239,83.933,1141.433,86.608Zm130.088,25.4c-1.79.924,5.145-18.3,1.846-22.648-3.3-4.373-13.171-3.939-13.171-3.939l.849-5.258c.113-.582,5.859-30.053,5.859-30.053l1.942-2.318s20.124,34.5,23.723,46.654C1292.57,94.446,1270.637,112.008,1271.522,112.008Z" transform="translate(-1075.317 158.507)" fill="#ce796f" style="mix-blend-mode: normal;isolation: isolate"/>
      <path id="Path_5035" data-name="Path 5035" d="M1159.412-99.582l-26.7,28.352s-3.683,3.256-2.219,11.48,4.872,15.291,7.446,15.838a36.6,36.6,0,0,0,6.184.553s5.724,12.4,9.776,17.276c0,0,1.413,19.143.661,24.457,0,0,9.593,8.382,18.631,9.448s23-12.78,23-12.78l3.461-16.95s8.192-12.437,8.751-15.747,4.3-2.461,6.144-4.094,6.1-8.937,6.8-15.838.751-14.828-7.265-12.5c-6.945-1.867-2.6-16.552-2.6-16.552l-12.206-10.77Z" transform="translate(-1051.195 124.116)" fill="#fff"/>
      <path id="Path_5036" data-name="Path 5036" d="M1199.63-28.953a27.384,27.384,0,0,1-1.377,3.09c-4.409,8.308-23.608,24.138-23.608,24.138l-5.8-17.845-3.184,17.845c-6.407-2.789-25.947-19.729-25.947-19.729s-.659-1.583-1.469-4.052c.64-.225.979-.357.979-.357s-.828-9.232,1.565-15.433c4.69-7.687,15.337-5.727,15.337-5.727s14.753-6.539,22.723-2.883,16.149.83,19.032,4.2,1.112,16.506,1.112,16.506Z" transform="translate(-1045.462 158.507)" fill="#fff" opacity="0.5"/>
      <path id="Path_5037" data-name="Path 5037" d="M1229.663-16.91,1177.922-36.6l-.641-.246s.188-1.375.338-3.372l-1.074,6.708-7.649,10.4a209.835,209.835,0,0,1,23.875,10.522,20.976,20.976,0,0,1,10.97,20.916l-9.538,81.56-3.9,46.314,11.8,12.249c12.435-4,56.565-20.445,79.966-59.242C1282.063,89.211,1259.4,14.859,1229.663-16.91Zm-9.7,121.271c-1.79.924,5.145-18.3,1.846-22.648-3.3-4.373-13.171-3.939-13.171-3.939l.849-5.258c.113-.582,5.859-30.053,5.859-30.053l1.942-2.318s20.124,34.5,23.723,46.654C1241.007,86.8,1219.074,104.36,1219.959,104.36Z" transform="translate(-1023.754 166.154)" opacity="0.2"/>
      <path id="Path_5038" data-name="Path 5038" d="M1155.259,67.738l-8.045-26.889s-14.425-49.2-24.319-61.334l2.6,34.6s-8.488,41.335-16.345,53.622c-7.857,12.266-9.554,15.337,0,15.337,9.573,0,32.786,18.523,32.786,18.523l-1.79-15.452Zm-20.218,10.4-6.482-5.71,16.261-39.982,6.933,30.693s-11.135-.828-14.941,1.846C1133.005,67.682,1135.041,78.139,1135.041,78.139Z" transform="translate(-1070.696 180.128)" opacity="0.2"/>
      <path id="Path_5039" data-name="Path 5039" d="M1144.048-56.553s1.486,14.5,0,21.125" transform="translate(-1041.35 154.587)" fill="none" stroke="#1a2e35" stroke-linecap="round" stroke-linejoin="round" stroke-width="1.103"/>
      <path id="Path_5040" data-name="Path 5040" d="M1169.671-39.582a62.161,62.161,0,0,1,1.614-13.851" transform="translate(-1023.205 156.796)" fill="none" stroke="#1a2e35" stroke-linecap="round" stroke-linejoin="round" stroke-width="1.103"/>
      <path id="Path_5041" data-name="Path 5041" d="M1196.347-93.254s8.773,11.021,8.322,19.343-1.124,18.219-.9,27.89-15.52,29.915-23.617,31.713-15.071,2.25-20.243-2.924-10.346-12.37-17.1-21.593-5.172-29.464-5.172-29.464" transform="translate(-1045.997 128.597)" fill="none" stroke="#1a2e35" stroke-linecap="round" stroke-linejoin="round" stroke-width="1.103"/>
      <path id="Path_5042" data-name="Path 5042" d="M1159.932-74.122a45.553,45.553,0,0,0-.685,9.168c.068,2.569.451,5.345,2.25,7.181.97.987,2.378,1.778,2.562,3.152a3.331,3.331,0,0,1-1.8,2.986,25.412,25.412,0,0,0-3.162,1.877" transform="translate(-1030.694 142.146)" fill="none" stroke="#1a2e35" stroke-linecap="round" stroke-linejoin="round" stroke-width="1.103"/>
      <path id="Path_5043" data-name="Path 5043" d="M1151.43-59.233s1.013,6.539,9.781,7.907" transform="translate(-1036.122 152.689)" fill="none" stroke="#1a2e35" stroke-linecap="round" stroke-linejoin="round" stroke-width="1.103"/>
      <path id="Path_5044" data-name="Path 5044" d="M1153.477-69.786c0,1.889-.818,3.421-1.826,3.421s-1.824-1.532-1.824-3.421.818-3.421,1.824-3.421S1153.477-71.675,1153.477-69.786Z" transform="translate(-1037.257 142.793)" fill="#1a2e35"/>
      <path id="Path_5045" data-name="Path 5045" d="M1168.785-69.3c0,1.889-.816,3.421-1.824,3.421s-1.824-1.532-1.824-3.421.816-3.421,1.824-3.421S1168.785-71.194,1168.785-69.3Z" transform="translate(-1026.416 143.134)" fill="#1a2e35"/>
      <path id="Path_5046" data-name="Path 5046" d="M1164.184-74.12s8.5-8.5,15.7.982" transform="translate(-1027.091 139.666)" fill="none" stroke="#1a2e35" stroke-linecap="round" stroke-linejoin="round" stroke-width="2.206"/>
      <path id="Path_5047" data-name="Path 5047" d="M1159.416-74.361s-5.4-6.05-13.9,0" transform="translate(-1040.309 140.072)" fill="none" stroke="#1a2e35" stroke-linecap="round" stroke-linejoin="round" stroke-width="2.206"/>
      <path id="Path_5048" data-name="Path 5048" d="M1144.709-48.585s5.206,14.355,16.839,18.426,27.076-17.057,27.076-17.057l-.808-2.748s-10.119,13.149-21.377,10.906-22.39-17.495-22.39-17.495Z" transform="translate(-1041.35 154.587)" fill="#1a2e35"/>
      <path id="Path_5049" data-name="Path 5049" d="M1143.975-55.174s-6.933,2.449-8.776-2.953-8.165-19.625-2.634-24.365,9.975,6.259,9.975,6.259" transform="translate(-1051.053 135.378)" fill="none" stroke="#1a2e35" stroke-linecap="round" stroke-linejoin="round" stroke-width="1.103"/>
      <path id="Path_5050" data-name="Path 5050" d="M1176.283-52.971s6.445,1.3,8.288-4.106,8.163-19.625,2.634-24.365-9.975,6.259-9.975,6.259" transform="translate(-1018.523 136.122)" fill="none" stroke="#1a2e35" stroke-linecap="round" stroke-linejoin="round" stroke-width="1.103"/>
      <path id="Path_5051" data-name="Path 5051" d="M1145.674-40.937a9.618,9.618,0,0,0,6.084-3.6,15.158,15.158,0,0,0,1.768-5.452,65.656,65.656,0,0,0,.963-10.99,14.79,14.79,0,0,1,.386-4.282,11,11,0,0,1,2.318-3.813c2.42-2.835,5.335-5.232,7.635-8.165s3.99-6.646,3.369-10.322c0,0,15.723,14.372,38.389,9.928,12.2-2.393,23.914-13.1,22.488-26.56-.508-4.79-4.026-8.233-8.6-9.369-6.031-1.5-11.451,1.715-16.916,3.775-9.964,3.758-19.712-2.694-29.778-3.777-8.607-.926-19.174.142-23.658,8.7,0,0-15.462,1.817-22.235,14.517s6.1,30.282,6.1,30.282,5.183-6.274,11.841,6.426Z" transform="translate(-1054.186 113.945)" fill="#1a2e35"/>
      <path id="Path_5052" data-name="Path 5052" d="M1172.828-92.921s-4,20.836,6.434,30.926c0,0,2.284-6.264,4.6-7.793a24.152,24.152,0,0,0-1.828-23.133C1174.4-105.047,1172.828-92.921,1172.828-92.921Z" transform="translate(-1021.503 125.017)" fill="#1a2e35"/>
      <path id="Path_5053" data-name="Path 5053" d="M1217.164-109.038c-1.544,5.743-6.4,10.186-11.906,12.428-14.485,5.9-28.553-.642-43.057-1.923-11.853-1.049-24.918,9.63-25.747,21.8" transform="translate(-1046.726 117.42)" fill="none" stroke="#fff" stroke-linecap="round" stroke-linejoin="round" stroke-width="1.103" opacity="0.2"/>
      <path id="Path_5054" data-name="Path 5054" d="M1131.189-82.741a25.322,25.322,0,0,1,15.428-22.346" transform="translate(-1050.456 120.218)" fill="none" stroke="#fff" stroke-linecap="round" stroke-linejoin="round" stroke-width="1.103" opacity="0.2"/>
      <path id="Path_5055" data-name="Path 5055" d="M1142.093-44.625s9.543,10.515,22.556,15.433c0,0,17.339-5.029,26.165-17.119" transform="translate(-1042.734 161.839)" fill="none" stroke="#1a2e35" stroke-linecap="round" stroke-linejoin="round" stroke-width="1.103"/>
      <circle id="Ellipse_284" data-name="Ellipse 284" cx="15.344" cy="15.344" r="15.344" transform="matrix(0.909, -0.417, 0.417, 0.909, 90.318, 65.457)" fill="none" stroke="#1a2e35" stroke-linecap="round" stroke-linejoin="round" stroke-width="1.103"/>
      <circle id="Ellipse_285" data-name="Ellipse 285" cx="15.344" cy="15.344" r="15.344" transform="translate(127.842 59.649) rotate(-7.003)" fill="none" stroke="#1a2e35" stroke-linecap="round" stroke-linejoin="round" stroke-width="1.103"/>
      <path id="Path_5056" data-name="Path 5056" d="M1147.757-48.673a12.029,12.029,0,0,0-7.381,5.722c-2.714,4.779-1.076,19.83-1.076,19.83s14.019,13.875,25.957,19.727l3.522-19.8,5.464,19.8s18.487-13.074,23.606-24.124c0,0,1.669-12.886,0-17.119a5.9,5.9,0,0,0-5.517-4.036" transform="translate(-1045.059 160.166)" fill="none" stroke="#1a2e35" stroke-linecap="round" stroke-linejoin="round" stroke-width="1.103"/>
      <path id="Path_5057" data-name="Path 5057" d="M1136.481,50.293s-5.473-36.716-12.767-51.7" transform="translate(-1055.748 193.64)" fill="none" stroke="#1a2e35" stroke-linecap="round" stroke-linejoin="round" stroke-width="1.103"/>
      <path id="Path_5058" data-name="Path 5058" d="M1114.484-20.485a148.546,148.546,0,0,1,11.342,18.979" transform="translate(-1062.285 180.128)" fill="none" stroke="#1a2e35" stroke-linecap="round" stroke-linejoin="round" stroke-width="1.103"/>
      <path id="Path_5059" data-name="Path 5059" d="M1198.791,2.992c1.929-7.314,3.978-13.732,6.026-17.922" transform="translate(-1002.584 184.061)" fill="none" stroke="#1a2e35" stroke-linecap="round" stroke-linejoin="round" stroke-width="1.103"/>
      <path id="Path_5060" data-name="Path 5060" d="M1192.159,47.9s3.954-25.171,8.659-45.916" transform="translate(-1007.28 196.036)" fill="none" stroke="#1a2e35" stroke-linecap="round" stroke-linejoin="round" stroke-width="1.103"/>
      <path id="Path_5061" data-name="Path 5061" d="M1196.084,12.511a28.957,28.957,0,0,1,15.274-10.444" transform="translate(-1004.501 196.098)" fill="none" stroke="#1a2e35" stroke-linecap="round" stroke-linejoin="round" stroke-width="1.103"/>
      <path id="Path_5062" data-name="Path 5062" d="M1173.808-38.245s31.838,12.717,52.385,19.941c0,0,25.281,23.774,52.385,106.12,0,0-24.847,41.781-72.085,55.176" transform="translate(-1020.275 167.551)" fill="none" stroke="#1a2e35" stroke-linecap="round" stroke-linejoin="round" stroke-width="1.103"/>
      <path id="Path_5063" data-name="Path 5063" d="M1197.747,55.31l22.824-19.058s12.075-9.176,24.633-2.9" transform="translate(-1003.323 216.699)" fill="none" stroke="#1a2e35" stroke-linecap="round" stroke-linejoin="round" stroke-width="1.103"/>
      <path id="Path_5064" data-name="Path 5064" d="M1197.228,6.832s18.882,27.812,23.71,46.647" transform="translate(-1003.691 199.472)" fill="none" stroke="#1a2e35" stroke-linecap="round" stroke-linejoin="round" stroke-width="1.103"/>
      <path id="Path_5065" data-name="Path 5065" d="M1133.25,40.582l-6.681-6.37s-9.916-1.732-21.143,5.794" transform="translate(-1068.699 218.739)" fill="none" stroke="#1a2e35" stroke-linecap="round" stroke-linejoin="round" stroke-width="1.103"/>
      <path id="Path_5066" data-name="Path 5066" d="M1117.8,51.271s8.3-27.252,16.48-41.32" transform="translate(-1059.934 201.681)" fill="none" stroke="#1a2e35" stroke-linecap="round" stroke-linejoin="round" stroke-width="1.103"/>
      <path id="Path_5067" data-name="Path 5067" d="M1168.782-36.289s-45.8,17.182-50.288,22.187-21.557,101.116-22.006,112.115c-.4,9.832,35.271,31.925,52.892,41.236" transform="translate(-1075.031 168.936)" fill="none" stroke="#1a2e35" stroke-linecap="round" stroke-linejoin="round" stroke-width="1.103"/>
      <rect id="Rectangle_9581" data-name="Rectangle 9581" width="74.5" height="52.929" rx="6.532" transform="translate(196.207 64.286)" fill="#fff" stroke="#1a2e35" stroke-linecap="round" stroke-linejoin="round" stroke-width="1.103"/>
      <path id="Path_5068" data-name="Path 5068" d="M1218.8-66.991,1204.476-58l13.294,11.791" transform="translate(-998.558 147.195)" fill="none" stroke="#1a2e35" stroke-linecap="round" stroke-linejoin="round" stroke-width="1.103"/>
      <path id="Path_5069" data-name="Path 5069" d="M1228.969-45.734l12.874-10.972-14.861-9.743" transform="translate(-982.621 147.579)" fill="none" stroke="#1a2e35" stroke-linecap="round" stroke-linejoin="round" stroke-width="1.103"/>
      <line id="Line_106" data-name="Line 106" y1="33.16" x2="10.576" transform="translate(227.208 75.436)" fill="none" stroke="#1a2e35" stroke-linecap="round" stroke-linejoin="round" stroke-width="1.103"/>
      <path id="Path_5070" data-name="Path 5070" d="M1161.356-16.031a3.012,3.012,0,0,1-3.011,3.011,3.012,3.012,0,0,1-3.011-3.011,3.012,3.012,0,0,1,3.011-3.013A3.012,3.012,0,0,1,1161.356-16.031Z" transform="translate(-1033.358 181.148)" fill="#1a2e35"/>
      <g id="Group_4072" data-name="Group 4072" transform="translate(63.022 243.932)">
        <path id="Path_5071" data-name="Path 5071" d="M1234.1,78.966H1129.878a2.445,2.445,0,0,1-2.443-2.444h0a2.443,2.443,0,0,1,2.443-2.443H1234.1a2.444,2.444,0,0,1,2.444,2.443h0A2.445,2.445,0,0,1,1234.1,78.966Z" transform="translate(-1116.136 3.159)" fill="#1a2e35"/>
        <path id="Path_5072" data-name="Path 5072" d="M1242.437,102.886,1256.4,37.3a6.981,6.981,0,0,0-6.828-8.435H1127.8a6.979,6.979,0,0,0-6.848,8.332l12.522,63.408a6.98,6.98,0,0,0,6.687,5.627l95.286,2.183A6.983,6.983,0,0,0,1242.437,102.886Z" transform="translate(-1120.82 -28.861)" fill="#fff" stroke="#1a2e35" stroke-linecap="round" stroke-linejoin="round" stroke-width="1.103"/>
        <line id="Line_107" data-name="Line 107" x2="14.468" transform="translate(96.285 6.224)" fill="none" stroke="#1a2e35" stroke-linecap="round" stroke-linejoin="round" stroke-width="1.103"/>
        <line id="Line_108" data-name="Line 108" x2="54.92" transform="translate(27.192 6.224)" fill="none" stroke="#1a2e35" stroke-linecap="round" stroke-linejoin="round" stroke-width="1.103"/>
        <g id="Group_4157" data-name="Group 4157" transform="translate(38.026 18.966)">
          <path id="Path_5272" data-name="Path 5272" d="M29.85,61.183c-1.914-1.108-3.84-2.216-5.753-3.336a4.306,4.306,0,0,1-.39-.277c.013-.869.025-1.725.038-2.593,1.372.793,2.757,1.6,4.129,2.379.252.139.466.39.806.34.239-.189.164-.453.164-.692V42.513c0-.252.113-.567-.214-.743q-6.364-3.72-12.728-7.428c-.3-.176-.617-.34-1.07-.579v6.093A12.8,12.8,0,0,1,12.791,38.7c-.264-.164-.189-.441-.189-.68,0-2.052.013-4.092-.013-6.144a.769.769,0,0,1,.441-.781q2.851-1.605,5.678-3.248a.63.63,0,0,1,.818.013c.478.365.982.692,1.574,1.1-1.712,1.02-3.361,1.989-5.111,3.034,2.669,1.536,5.212,3,7.768,4.469,1.838,1.057,3.689,2.115,5.514,3.2a.832.832,0,0,0,.969.063c4.368-2.53,8.762-5.048,13.143-7.566.063-.038.113-.1.239-.2-1.687-1.007-3.336-1.977-4.985-2.958.05-.088.063-.126.075-.138a2.4,2.4,0,0,1,3.626-.252,31.782,31.782,0,0,0,4.079,2.354,1.108,1.108,0,0,1,.655,1.171c-.038,1.876-.038,3.764,0,5.64a1.165,1.165,0,0,1-.692,1.246c-.466.227-.894.529-1.523.919V33.713c-1.322.781-2.467,1.435-3.6,2.1-3.185,1.876-6.37,3.764-9.568,5.615a1.138,1.138,0,0,0-.642,1.12q.038,7.214,0,14.44c0,.743.151.781.755.416,1.246-.768,2.518-1.473,3.789-2.216.164.013.29-.025.34-.2.353-.176.277.139.277.277a9.763,9.763,0,0,1-.051,2.1l-.189.189c-2,1.209-3.991,2.417-5.993,3.626Z" transform="translate(0 -20.451)" fill="#cd7870" fill-rule="evenodd"/>
          <path id="Path_5273" data-name="Path 5273" d="M65.259.912c1.813,1.1,3.613,2.191,5.426,3.3.252.151.567.214.692.529-.378.667.088,1.448-.3,2.115-1.372-.793-2.744-1.6-4.117-2.392-.214-.113-.39-.415-.718-.239-.252.227-.151.516-.151.781-.013,1.183-.013,2.379,0,3.563.013.466-.151.629-.617.642s-.932-.164-1.372.126c-.3-.2-.151-.5-.151-.755-.013-1.46-.013-2.921-.013-4.507-1.725,1.02-3.349,1.977-5.136,3.009V4.89c0-.353.3-.428.529-.567L65.07.887A.522.522,0,0,0,65.259.912Z" transform="translate(-35.244)" fill="#cd7870" fill-rule="evenodd"/>
          <path id="Path_5274" data-name="Path 5274" d="M121.82,101.238c1.851-1.057,3.55-2.014,5.325-3.021-1.46-.806-2.82-1.586-4.2-2.329-.428-.227-.453-.39-.2-.793.906-1.523.881-1.536,2.4-.68,1.007.566,2.014,1.121,3.122,1.75V90.273c.692.39,1.259.718,1.825,1.02a.592.592,0,0,1,.315.617c0,2.178-.013,4.369,0,6.546a.651.651,0,0,1-.352.667c-1.851,1.1-3.7,2.2-5.552,3.3a.548.548,0,0,1-.68.038C123.2,102.069,122.563,101.692,121.82,101.238Z" transform="translate(-83.308 -68.173)" fill="#cd7870" fill-rule="evenodd"/>
          <path id="Path_5275" data-name="Path 5275" d="M13.306,92.3a6.386,6.386,0,0,1,1.649-.969,1.531,1.531,0,0,1,.151.881v3.966c0,.264-.1.566.189.755,1.4-.755,2.82-1.5,4.2-2.279.39-.227.579-.189.818.227.856,1.523.881,1.511-.617,2.354L16.756,98.9c-.05.025-.076.075-.164.164,1.7.982,3.387,1.951,5.124,2.946a17.949,17.949,0,0,1-1.939,1.3c-.239.176-.415.038-.592-.075L13.445,99.8c-.05-.075-.113-.138-.164-.214V92.456c.025-.013.063-.025.063-.038Z" transform="translate(-0.527 -68.984)" fill="#cd7870" fill-rule="evenodd"/>
          <path id="Path_5276" data-name="Path 5276" d="M80.176,87.04c.327.176.214.478.214.743v14.49c0,.239.076.5-.164.692q0-7.459-.013-14.931C80.214,87.695,80.188,87.368,80.176,87.04Z" transform="translate(-51.547 -65.708)" fill="#cd7870" fill-rule="evenodd"/>
          <path id="Path_5277" data-name="Path 5277" d="M81.125,20.11c.428-.29.919-.126,1.372-.126s.629-.176.617-.642c-.025-1.183-.013-2.379,0-3.563,0-.264-.1-.554.151-.781.013,1.548,0,3.084.025,4.633,0,.39-.1.554-.516.529C82.233,20.123,81.679,20.123,81.125,20.11Z" transform="translate(-52.271 -10.763)" fill="#cd7870" fill-rule="evenodd"/>
          <path id="Path_5278" data-name="Path 5278" d="M20.68,96.689c-.29-.2-.189-.5-.189-.755-.013-1.322,0-2.644,0-3.966a1.531,1.531,0,0,0-.151-.881c.592-.277.315.264.327.4C20.68,93.214,20.68,94.951,20.68,96.689Z" transform="translate(-5.911 -68.734)" fill="#cd7870" fill-rule="evenodd"/>
          <path id="Path_5279" data-name="Path 5279" d="M58.859,142.5c-.013.869-.025,1.725-.038,2.593a5.989,5.989,0,0,1-.088-2.631.1.1,0,0,1,.063,0C58.808,142.458,58.834,142.483,58.859,142.5Z" transform="translate(-35.113 -107.97)" fill="#cd7870" fill-rule="evenodd"/>
          <path id="Path_5280" data-name="Path 5280" d="M110.527,19.233c.39-.667-.075-1.448.3-2.115.013.655.025,1.309.038,1.977C110.854,19.4,110.741,19.422,110.527,19.233Z" transform="translate(-74.695 -12.379)" fill="#cd7870" fill-rule="evenodd"/>
          <path id="Path_5281" data-name="Path 5281" d="M109.953,142.69c-.051.176-.176.214-.34.2C109.726,142.829,109.84,142.766,109.953,142.69Z" transform="translate(-73.998 -108.151)" fill="#cd7870" fill-rule="evenodd"/>
          <path id="Path_5282" data-name="Path 5282" d="M13.306,95.423c.013.038.025.088.038.126,0,.013-.05.025-.063.038A.639.639,0,0,1,13.306,95.423Z" transform="translate(-0.527 -72.101)" fill="#cd7870" fill-rule="evenodd"/>
          <path id="Path_5283" data-name="Path 5283" d="M13.224,126.139c.05.075.113.138.164.214C13.287,126.315,13.211,126.265,13.224,126.139Z" transform="translate(-0.483 -95.528)" fill="#cd7870" fill-rule="evenodd"/>
          <path id="Path_5284" data-name="Path 5284" d="M111.207,152.9l.189-.189C111.4,152.841,111.32,152.891,111.207,152.9Z" transform="translate(-75.214 -115.797)" fill="#cd7870" fill-rule="evenodd"/>
        </g>
      </g>
      <path id="Path_5074" data-name="Path 5074" d="M1265.6,149.437l-11.1,29.137s-28.307-7.135-64.581-14.569c-37.927-7.772-77.539-17.833-98.088-53.881-2.506-4.4-4.171-9.588-3-14.511,2.965-12.451,19.164-15.831,29.841-17.078A198.163,198.163,0,0,1,1138.88,77.4c3.437-.048,14.777-1.85,17.522.169a80.236,80.236,0,0,0,13.18,7.811c6.064,2.574,94.576-2.313,94.576-2.313s2.632-5.557,2.783-10.628c13.913-7.07,46.131-13.062,59.745-10.415,21.406,4.163,33.894,16.649,31.515,29.732S1308.581,139.923,1265.6,149.437Z" transform="translate(-1080.723 238.104)" fill="#1a2e35"/>
      <path id="Path_5075" data-name="Path 5075" d="M1241.4,134.084s-26.924-7.135-48.926-22-39.19-32.111-69.842-28.543" transform="translate(-1056.518 253.456)" fill="none" stroke="#fff" stroke-linecap="round" stroke-linejoin="round" stroke-width="1.103"/>
      <path id="Path_5076" data-name="Path 5076" d="M1160.554,117.243c13.9-4,24.1-12.987,35.247-21.62,11.812-9.145,24.3-18,37.738-24.8" transform="translate(-1029.661 244.788)" fill="none" stroke="#fff" stroke-linecap="round" stroke-linejoin="round" stroke-width="1.103"/>
      <line id="Line_109" data-name="Line 109" x2="4.078" transform="translate(126.006 75.436)" fill="none" stroke="#1a2e35" stroke-linecap="round" stroke-linejoin="round" stroke-width="1.103"/>
    </g>
  </g>
</svg>
